<svg width="16" height="16" viewBox="0 0 16 16" fill="none" xmlns="http://www.w3.org/2000/svg">
<g clip-path="url(#clip0_7935_1264)">
<path d="M1.33325 5.33333C1.33325 5.33333 4.31802 2 7.99992 2C11.6818 2 14.6666 5.33333 14.6666 5.33333" stroke="#020202" stroke-linecap="round"/>
<path d="M14.3626 8.69675C14.5653 8.98095 14.6666 9.12308 14.6666 9.33341C14.6666 9.54375 14.5653 9.68588 14.3626 9.97008C13.4519 11.2471 11.1261 14.0001 7.99992 14.0001C4.87377 14.0001 2.54799 11.2471 1.63728 9.97008C1.43459 9.68588 1.33325 9.54375 1.33325 9.33341C1.33325 9.12308 1.43459 8.98095 1.63728 8.69675C2.54799 7.41968 4.87377 4.66675 7.99992 4.66675C11.1261 4.66675 13.4519 7.41968 14.3626 8.69675Z" stroke="#020202"/>
<path d="M10 9.33325C10 8.22865 9.1046 7.33325 8 7.33325C6.8954 7.33325 6 8.22865 6 9.33325C6 10.4379 6.8954 11.3333 8 11.3333C9.1046 11.3333 10 10.4379 10 9.33325Z" stroke="#020202"/>
</g>
<defs>
<clipPath id="clip0_7935_1264">
<rect width="16" height="16" fill="white"/>
</clipPath>
</defs>
</svg>
