<svg width="20" height="21" viewBox="0 0 20 21" fill="none" xmlns="http://www.w3.org/2000/svg">
<path d="M18.1711 9.30785H17.4998V9.27326H9.99984V12.6066H14.7094C14.0223 14.547 12.1761 15.9399 9.99984 15.9399C7.23859 15.9399 4.99984 13.7012 4.99984 10.9399C4.99984 8.17868 7.23859 5.93993 9.99984 5.93993C11.2744 5.93993 12.434 6.42076 13.3169 7.20618L15.674 4.8491C14.1857 3.46201 12.1948 2.6066 9.99984 2.6066C5.39775 2.6066 1.6665 6.33785 1.6665 10.9399C1.6665 15.542 5.39775 19.2733 9.99984 19.2733C14.6019 19.2733 18.3332 15.542 18.3332 10.9399C18.3332 10.3812 18.2757 9.83576 18.1711 9.30785Z" fill="#FFC107"/>
<path d="M2.62744 7.06118L5.36536 9.0691C6.10619 7.23493 7.90036 5.93993 9.99994 5.93993C11.2745 5.93993 12.4341 6.42076 13.317 7.20618L15.6741 4.8491C14.1858 3.46201 12.1949 2.6066 9.99994 2.6066C6.79911 2.6066 4.02327 4.41368 2.62744 7.06118Z" fill="#FF3D00"/>
<path d="M9.9998 19.2733C12.1523 19.2733 14.1081 18.4495 15.5869 17.11L13.0077 14.9275C12.1429 15.5851 11.0862 15.9408 9.9998 15.94C7.8323 15.94 5.99189 14.5579 5.29855 12.6291L2.58105 14.7229C3.96022 17.4216 6.76105 19.2733 9.9998 19.2733Z" fill="#4CAF50"/>
<path d="M18.1712 9.30787H17.5V9.27328H10V12.6066H14.7096C14.3809 13.5301 13.7889 14.3371 13.0067 14.9279L13.0079 14.927L15.5871 17.1095C15.4046 17.2754 18.3333 15.1066 18.3333 10.94C18.3333 10.3812 18.2758 9.83578 18.1712 9.30787Z" fill="#1976D2"/>
</svg>
