<svg width="344" height="383" viewBox="0 0 344 383" fill="none" xmlns="http://www.w3.org/2000/svg">
<path d="M36.2957 209.229L34.7513 198.932L33.979 196.873H40.157L41.7015 207.17L36.2957 209.229Z" fill="#211F25"/>
<path d="M54.373 128.43C51.468 121.17 43.7223 111.983 43.7223 111.983L22.0975 125.81C22.0975 125.81 27.1308 133.671 28.6393 139.362C31.7312 151.027 24.2332 169.488 24.2332 169.488L55.0341 160.229C55.0341 160.229 57.7221 136.801 54.373 128.43Z" fill="#119B47"/>
<path d="M70.9551 130.182C68.2184 123.475 60.7112 115.072 60.7112 115.072L38.9365 128.407L45.1572 140.903L54.2524 160.198L74.1394 151.274C74.1394 151.274 74.1103 137.915 70.9551 130.182Z" fill="#119B47"/>
<path d="M58.6909 124.282L60.2354 127.371V160.577L41.7014 163.666C41.7014 163.666 43.3667 152.638 41.7014 145.905C40.3411 140.404 35.5234 132.776 35.5234 132.776L58.6909 124.282Z" stroke="#1F1E24" stroke-width="0.772248"/>
<path d="M32.4346 142.816C32.1775 150.441 26.2566 161.35 26.2566 161.35V169.072L54.8298 163.666C54.8298 163.666 60.7875 137.122 54.8298 121.965C52.9542 117.194 48.6518 110.381 48.6518 110.381L26.2566 121.965C26.2566 121.965 32.7207 134.328 32.4346 142.816Z" stroke="#1F1E24" stroke-width="0.772248"/>
<path d="M81.7547 139.091C81.0726 132.346 76.229 122.788 76.229 122.788L50.9685 128.794L53.3367 141.665L56.4942 161.4L78.5972 158.826C78.5972 158.826 82.5411 146.867 81.7547 139.091Z" fill="#119B47"/>
<path d="M74.1359 121.965L50.9685 128.143C50.9685 128.143 55.8796 137.703 57.1465 144.361C58.4995 151.471 57.1465 162.894 57.1465 162.894L76.4527 160.578C76.4527 160.578 81.2738 147.479 80.3139 138.955C79.5239 131.939 74.1359 121.965 74.1359 121.965Z" stroke="#1F1E24" stroke-width="0.772248"/>
<circle cx="66.4135" cy="207.685" r="9.26697" fill="#F9DA22"/>
<circle cx="18.5341" cy="115.015" r="9.26697" fill="#F9DA22"/>
<path d="M61.0067 215.407H343.649C343.649 215.407 356.779 376.528 207.736 380.668C58.6923 384.808 61.0067 215.407 61.0067 215.407Z" fill="#CFE0FC"/>
<path d="M215.457 89.5307C225.496 81.0359 230.892 64.2644 228.585 47.0571C226.317 30.1378 209.303 13.4764 205.418 11.5336C201.532 9.59086 190.218 3.13977 179.934 1.49456C169.778 -0.130092 160.627 1.49448 160.627 1.49448C150.588 5.35564 152.905 3.81115 147.499 11.5336C144.997 16.5377 142.094 23.8896 145.955 32.3843C145.955 32.3843 151.36 43.1959 160.627 47.0571C169.895 50.9183 169.414 49.6473 184.567 50.9183C199.721 52.1894 194.606 71.769 197.695 71.769C200.784 71.769 205.418 63.2743 205.418 63.2743C205.418 63.2743 210.051 57.0964 215.457 63.2743C220.863 69.4522 205.418 86.4418 205.418 89.5307V89.5309C205.418 92.6198 205.418 98.0254 215.457 89.5307Z" stroke="#FF5959" stroke-opacity="0.5" stroke-width="1.5445"/>
<path d="M215.457 89.5307C225.496 81.0359 230.892 64.2644 228.585 47.0571C226.317 30.1378 209.303 13.4764 205.418 11.5336C201.532 9.59086 190.218 3.13977 179.934 1.49456C169.778 -0.130092 160.627 1.49448 160.627 1.49448C150.588 5.35564 152.905 3.81115 147.499 11.5336C144.997 16.5377 142.094 23.8896 145.955 32.3843C145.955 32.3843 151.36 43.1959 160.627 47.0571C169.895 50.9183 169.414 49.6473 184.567 50.9183C199.721 52.1894 194.606 71.769 197.695 71.769C200.784 71.769 205.418 63.2743 205.418 63.2743C205.418 63.2743 210.051 57.0964 215.457 63.2743C220.863 69.4522 205.418 86.4418 205.418 89.5307V89.5309C205.418 92.6198 205.418 98.0254 215.457 89.5307Z" stroke="#1F1E24" stroke-width="1.5445"/>
<path d="M137.926 47.0572C137.926 47.0572 132.074 32.6899 135.387 24.1984C138.875 15.2569 150.59 6.8194 149.776 8.71333" stroke="#FF5959" stroke-width="1.5445"/>
<path d="M137.926 47.0572C137.926 47.0572 132.074 32.6899 135.387 24.1984C138.875 15.2569 150.59 6.8194 149.776 8.71333" stroke="#1F1E24" stroke-width="1.5445"/>
<path d="M135.915 54.7795C138.18 45.0136 143.638 30.0678 145.182 30.8398C146.726 31.6118 148.17 37.5605 151.36 40.879C154.81 44.4671 157.56 45.723 162.057 47.7771L162.172 47.8292C170.515 51.6398 173.755 48.6015 185.339 51.6905C196.923 54.7795 196.923 70.2244 198.467 71.7689C200.012 73.3134 203.395 59.9409 209.279 60.9575C212.667 61.5429 217.774 58.6407 216.229 66.3632C214.685 74.0857 208.507 91.8474 206.962 94.9364C205.418 98.0254 207.734 113.47 208.507 115.787C209.279 118.104 190.131 125.398 189.2 128.143C188.27 130.888 186.884 115.787 186.884 115.787C186.884 115.787 186.111 109.609 179.161 109.609C172.211 109.609 168.752 112.196 162.172 111.154C152.971 109.696 147.295 106.717 141.321 99.5699C135.571 92.6898 134.701 86.8456 133.599 77.9469C132.481 68.9233 133.861 63.637 135.915 54.7795Z" fill="#1F1E24"/>
<path d="M210.823 116.56C210.823 116.56 177.911 135.424 177.4 140.03C177.005 143.588 184.012 146.374 183.023 162.122C182.034 177.87 175.517 189.151 171.656 206.141C167.794 223.13 164.488 254.792 164.488 254.792L129.737 189.151L119.698 196.102C116.599 197.492 118.851 278.51 122.787 311.167C126.723 343.823 161.109 382.903 173.755 377.58C186.401 372.257 196.755 365.286 210.823 354.412C224.891 343.538 247.224 308.797 251.752 281.821C256.281 254.845 258.796 215.802 251.752 174.479C247.743 150.958 237.556 142.588 218.546 129.688C213.624 126.348 210.823 116.56 210.823 116.56Z" fill="black" stroke="#FF5959" stroke-opacity="0.2" stroke-width="1.5445"/>
<path d="M262.695 315.588C256.601 299.819 251.023 288.075 251.023 273.903C251.023 206.447 88.4504 332.262 88.4504 332.262C88.4504 332.262 112.628 343.101 123.466 353.939C134.304 364.776 145.976 368.111 167.653 374.781C189.329 381.451 201.313 382.805 222.677 379.783C247.653 376.251 281.871 353.939 281.871 353.939C281.871 353.939 268.732 331.207 262.695 315.588Z" fill="#0B46A7" stroke="#1F1E24" stroke-width="1.66742"/>
<path d="M1.5445 203.051L0 172.161C0 172.161 21.4682 165.723 35.5234 162.894C55.7664 158.82 88.0363 156.716 88.0363 156.716V189.151C88.0363 189.151 77.8189 192.939 71.0468 194.556C57.5025 197.791 49.3435 195.939 35.5234 197.645C22.1883 199.292 1.5445 203.051 1.5445 203.051Z" fill="#5F5958"/>
<path d="M289.442 81.0964L267.89 76.7011C267.89 76.7011 266.599 88.2192 263.491 94.7195C260.248 101.501 251.753 109.665 251.753 109.665L274.696 114.344C274.696 114.344 281.204 106.423 284.039 100.486C287.409 93.4275 289.442 81.0964 289.442 81.0964Z" stroke="#1F1E24" stroke-width="0.772248"/>
<path d="M286.005 108.832L272.105 100.337C272.105 100.337 270.735 108.51 267.627 115.01C264.384 121.791 256.386 120.421 256.386 120.421L269.515 128.916C269.515 128.916 277.765 127.897 280.599 121.96C282.512 117.955 286.005 108.832 286.005 108.832Z" fill="#119B47"/>
<path d="M286.353 87.274L264.801 82.8787C264.801 82.8787 263.51 94.3968 260.402 100.897C257.159 107.678 248.664 111.154 248.664 111.154L271.607 120.521C271.607 120.521 278.115 112.601 280.95 106.664C284.32 99.605 286.353 87.274 286.353 87.274Z" fill="#119B47"/>
<path d="M271.831 67.1357H247.892C247.892 67.1357 249.021 78.6794 247.12 85.6697C245.136 92.9624 237.853 102.659 237.853 102.659H263.337C263.337 102.659 268.555 93.5977 270.287 87.2142C272.346 79.6242 271.831 67.1357 271.831 67.1357Z" fill="#119B47"/>
<path d="M276.465 63.2744H252.525C252.525 63.2744 253.654 74.8181 251.753 81.8084C249.77 89.101 242.486 98.7978 242.486 98.7978H267.97C267.97 98.7978 273.189 89.7363 274.92 83.3529C276.979 75.7629 276.465 63.2744 276.465 63.2744Z" stroke="#1F1E24" stroke-width="0.772248"/>
<path d="M288.049 103.431L274.148 94.9365C274.148 94.9365 272.779 103.109 269.67 109.609C266.427 116.391 257.931 116.559 257.931 116.559L273.376 125.054C273.376 125.054 279.808 122.496 282.643 116.559C284.555 112.554 288.049 103.431 288.049 103.431Z" stroke="#1F1E24" stroke-width="0.772248"/>
<path d="M56.9747 73.7462L57.4073 73.1064L56.8497 72.7294L56.4001 73.2302L56.9747 73.7462ZM75.3943 86.201L74.9617 86.8407L75.5648 87.2485L76.0074 86.6704L75.3943 86.201ZM126.649 19.2563L118.414 22.6776L125.494 28.0985L126.649 19.2563ZM18.5339 116.56L19.1086 117.076L57.5493 74.2621L56.9747 73.7462L56.4001 73.2302L17.9593 116.044L18.5339 116.56ZM56.9747 73.7462L56.5421 74.3859L74.9617 86.8407L75.3943 86.201L75.8268 85.5612L57.4073 73.1064L56.9747 73.7462ZM75.3943 86.201L76.0074 86.6704L123.037 25.2443L122.424 24.7749L121.81 24.3054L74.7811 85.7315L75.3943 86.201Z" fill="black"/>
<circle cx="17.7618" cy="113.471" r="8.68779" stroke="black" stroke-width="1.15837"/>
<circle cx="66.4135" cy="207.685" r="8.68779" stroke="black" stroke-width="1.15837"/>
<circle cx="105.026" cy="81.036" r="5.91986" transform="rotate(67.7159 105.026 81.036)" fill="#F9DA22"/>
<circle cx="106.183" cy="80.2201" r="5.54987" stroke="black" stroke-width="0.739982"/>
<path d="M167.578 132.004L186.884 118.104L189.201 129.688L178.389 138.955C178.389 138.955 187.162 160.578 186.884 164.439C186.606 168.3 176.89 189.424 172.984 206.14C168.693 224.499 166.806 254.02 166.806 254.02L134.371 193.784L117.382 214.635L122.788 311.166C122.788 311.166 111.645 346.512 93.4421 347.462C83.4307 347.984 78.7694 346.689 69.5024 338.195C60.2354 329.7 54.0717 317.192 47.8795 301.899C40.9307 284.738 40.2546 273.921 37.8402 255.564C35.4777 237.601 35.5235 209.229 35.5235 209.229L43.246 206.14C43.246 206.14 84.1751 255.049 84.1751 254.02C84.1751 252.99 85.7196 242.436 91.8976 228.535C98.0756 214.635 115.065 193.269 122.788 186.834C130.51 180.399 147.499 157.489 157.539 144.36C167.578 131.232 168.35 138.955 169.122 138.955C169.895 138.955 167.578 132.004 167.578 132.004Z" fill="#0B46A6" stroke="#1F1E24" stroke-width="1.5445"/>
<path d="M171.439 134.321L183.023 126.599V134.321L172.211 143.588C172.211 143.588 177.881 155.038 179.934 162.894C187.515 191.917 165.261 242.436 165.261 242.436C165.261 242.436 145.472 196.101 135.143 192.24C124.814 188.378 150.243 281.717 121.243 325.066C114.93 334.502 110.432 343.6 102.709 347.462C94.986 351.323 91.1248 352.867 77.9968 343.6C64.8689 334.333 50.4397 303.085 43.2457 273.326C37.5655 249.829 39.3844 211.546 39.3844 211.546L47.8792 209.229C47.8792 209.229 84.1745 257.881 88.036 257.881C91.8976 257.881 93.4421 222.357 121.243 192.24C149.043 162.122 155.531 156.562 162.944 143.588C170.358 130.614 169.122 136.123 167.578 140.499L172.211 138.955L171.439 134.321Z" fill="#0E61E8"/>
<path d="M28.5734 151.311L0.772461 166.756V168.3M77.9972 189.151L28.5734 194.556L0.772461 200.734V168.3M85.7197 151.311L0.772461 168.3" stroke="#1F1E24" stroke-width="1.5445"/>
<path d="M88.8078 157.488C87.9206 153.053 80.2537 148.258 84.1743 149.766C88.0948 151.274 87.2633 149.766 94.2135 153.627C101.164 157.488 115.272 162.953 118.925 178.339C120.298 184.119 125.103 192.239 125.103 192.239L120.47 194.556C120.47 194.556 114.776 187.687 109.658 186.061C103.881 184.226 99.62 186.061 94.2135 187.606C88.807 189.15 57.9178 190.695 62.5513 189.923C65.7753 189.385 69.3729 187.726 71.5236 186.766C68.3626 187.704 61.9345 189.082 57.9178 187.606C55.2474 186.624 53.9712 185.51 51.7399 183.745C49.3984 181.892 48.8583 179.933 46.3341 178.339C45.1938 177.619 44.354 177.562 43.2451 176.794C40.7656 175.078 38.3975 170.704 38.6117 170.616C38.8258 170.529 64.3634 171.48 64.0958 170.616C64.0958 170.616 90.7915 167.407 88.8078 157.488Z" fill="#1F1E24" stroke="black" stroke-width="1.5445"/>
<path d="M49.4241 179.112C49.4241 179.112 55.0857 179.425 58.691 179.112C63.287 178.712 70.2748 176.795 70.2748 176.795" stroke="black" stroke-width="1.5445"/>
<path d="M52.5129 182.973C52.5129 182.973 58.1745 183.287 61.7799 182.973C66.3759 182.573 73.3636 180.656 73.3636 180.656" stroke="black" stroke-width="1.5445"/>
<path d="M210.823 115.015C210.823 115.015 177.911 133.88 177.4 138.485C177.005 142.044 184.012 144.83 183.023 160.578C182.034 176.326 175.517 187.607 171.656 204.596C167.794 221.586 164.488 253.248 164.488 253.248L129.737 187.607L119.698 194.557C116.599 195.947 118.851 276.966 122.787 309.622C126.723 342.278 161.109 381.358 173.755 376.035C186.401 370.713 196.755 363.742 210.823 352.868C224.891 341.994 247.224 307.253 251.752 280.277C256.281 253.301 258.796 214.258 251.752 172.934C247.743 149.413 237.556 141.044 218.546 128.144C213.624 124.804 210.823 115.015 210.823 115.015Z" fill="#0E61E8" stroke="#1F1E24" stroke-width="1.5445"/>
</svg>
